{
    "asset" : {
        "generator" : "Khronos glTF Blender I/O v1.4.40",
        "version" : "2.0"
    },
    "scene" : 0,
    "scenes" : [
        {
            "name" : "Scene",
            "nodes" : [
                0
            ]
        }
    ],
    "nodes" : [
        {
            "mesh" : 0,
            "name" : "brain-low"
        }
    ],
    "meshes" : [
        {
            "name" : "Cube.002",
            "primitives" : [
                {
                    "attributes" : {
                        "POSITION" : 0,
                        "NORMAL" : 1,
                        "TEXCOORD_0" : 2
                    },
                    "indices" : 3
                }
            ]
        }
    ],
    "accessors" : [
        {
            "bufferView" : 0,
            "componentType" : 5126,
            "count" : 690,
            "max" : [
                1.66224205493927,
                3.0552053451538086,
                5.782334327697754
            ],
            "min" : [
                -1.6410095691680908,
                1.055009126663208,
                3.019932508468628
            ],
            "type" : "VEC3"
        },
        {
            "bufferView" : 1,
            "componentType" : 5126,
            "count" : 690,
            "type" : "VEC3"
        },
        {
            "bufferView" : 2,
            "componentType" : 5126,
            "count" : 690,
            "type" : "VEC2"
        },
        {
            "bufferView" : 3,
            "componentType" : 5123,
            "count" : 3840,
            "type" : "SCALAR"
        }
    ],
    "bufferViews" : [
        {
            "buffer" : 0,
            "byteLength" : 8280,
            "byteOffset" : 0
        },
        {
            "buffer" : 0,
            "byteLength" : 8280,
            "byteOffset" : 8280
        },
        {
            "buffer" : 0,
            "byteLength" : 5520,
            "byteOffset" : 16560
        },
        {
            "buffer" : 0,
            "byteLength" : 7680,
            "byteOffset" : 22080
        }
    ],
    "buffers" : [
        {
            "byteLength" : 29760,
            "uri" : "data:application/octet-stream;base64,"
        }
    ]
}
